<svg aria-hidden="true" style="position: absolute; width: 0; height: 0; overflow: hidden;" version="1.1" xmlns="http://www.w3.org/2000/svg" xmlns:xlink="http://www.w3.org/1999/xlink">
<defs>
<symbol id="icon-Play" viewBox="0 0 52 32">
<path d="M16 32c8.837 0 16-7.163 16-16s-7.163-16-16-16-16 7.163-16 16 7.163 16 16 16z"></path>
<path fill="#222f33" style="fill: var(--color2, #222f33); stroke: var(--color2, #222f33)" stroke="#222f33" stroke-linejoin="round" stroke-linecap="round" stroke-miterlimit="4" stroke-width="2" d="M19 16.5l-5 3.5v-7l5 3.5z"></path>
</symbol>
<symbol id="icon-Logomark" viewBox="0 0 41 32">
<path d="M16.778 0.846c1.657-0.548 2.228-0.689 2.887-0.78l-0.036 0.004c0.317-0.047 0.642-0.071 0.972-0.071 0.351 0 0.695 0.027 0.994 0.075 0.657 0.098 1.227 0.246 2.878 0.812l11.722 4.014c1.588 0.543 2.122 0.858 2.646 1.308l0.006 0.005c0.504 0.43 0.903 0.979 1.163 1.632 0.257 0.644 0.382 1.252 0.382 2.93v18.475c0 0.822-0.086 1.12-0.246 1.42l-0.004 0.009c-0.156 0.289-0.394 0.528-0.692 0.688s-0.597 0.246-1.418 0.246h-35.479c-0.821 0-1.118-0.086-1.418-0.246-0.3-0.161-0.535-0.396-0.695-0.697-0.161-0.3-0.246-0.598-0.246-1.42v-18.434c0-1.69 0.127-2.303 0.386-2.95l0.010-0.028c0.254-0.628 0.659-1.18 1.175-1.615 0.533-0.45 1.074-0.763 2.677-1.294l12.337-4.082zM3.262 28.542h10.176v-15.545c0-0.68 0.551-1.231 1.231-1.231v0h11.247c0.68 0 1.231 0.551 1.231 1.231v0 15.545h10.177v-17.766c0-1.19-0.044-1.494-0.164-1.794-0.068-0.177-0.175-0.325-0.312-0.439l-0.002-0.001c-0.246-0.21-0.518-0.35-1.644-0.735l-11.719-4.012c-1.403-0.48-1.861-0.608-2.338-0.679-0.164-0.027-0.352-0.042-0.544-0.042-0.181 0-0.358 0.014-0.531 0.040l0.019-0.002c-0.478 0.066-0.937 0.188-2.345 0.655l-12.34 4.082c-1.136 0.375-1.41 0.513-1.66 0.724-0.14 0.116-0.25 0.264-0.316 0.435l-0.002 0.007c-0.122 0.303-0.165 0.607-0.165 1.804v17.726z"></path>
</symbol>
<symbol id="icon-Wordmark" viewBox="0 0 194 32">
<path d="M1.764 5.91v24.64c0 0.258 0.078 0.448 0.23 0.564l-0.002-0.002c0.146 0.112 0.329 0.178 0.526 0.178 0.008 0 0.017-0 0.024-0h17.44c0.516 0 0.776-0.246 0.776-0.74v-3.214c0-0.294-0.054-0.514-0.16-0.654-0.104-0.142-0.322-0.212-0.65-0.212h-12.986v-6.43h9.692c0.258 0 0.446-0.082 0.564-0.246 0.116-0.166 0.176-0.354 0.176-0.566v-3.196c0-0.294-0.072-0.504-0.212-0.628-0.14-0.122-0.328-0.172-0.562-0.15h-9.66v-5.368h12.53c0.292 0 0.512-0.082 0.66-0.248 0.146-0.164 0.22-0.352 0.22-0.564v-3.11l-0 0.002c0.001-0.013 0.001-0.027 0.001-0.041 0-0.227-0.073-0.437-0.195-0.605-0.13-0.17-0.346-0.256-0.652-0.256h-16.984c-0.516 0-0.776 0.282-0.776 0.848zM38.288 25.41l0.019-0.015c-0.598 0.482-1.252 0.898-2.011 1.261-0.728 0.346-1.59 0.52-2.588 0.52-0.918 0-1.78-0.186-2.59-0.556-0.812-0.37-1.518-0.874-2.124-1.51-0.604-0.636-1.084-1.382-1.436-2.242l0.018 0.049c-0.353-0.861-0.547-1.804-0.547-2.792 0-1.942 0.751-3.708 1.973-5.021 0.612-0.654 1.32-1.17 2.124-1.554 0.804-0.382 1.664-0.574 2.582-0.574 0.846 0 1.666 0.158 2.466 0.478 0.798 0.316 1.496 0.73 2.096 1.236 0.246 0.2 0.47 0.3 0.67 0.3 0.282 0 0.54-0.176 0.774-0.53l1.445-2.207c0.055-0.075 0.090-0.165 0.097-0.265 0.006-0.094 0.010-0.178 0.010-0.248 0-0.26-0.080-0.45-0.238-0.574-0.16-0.124-0.32-0.268-0.486-0.432l0.018 0.016 0.029 0.021c-0.917-0.69-1.944-1.24-3.129-1.645-1.164-0.4-2.396-0.6-3.7-0.6h0.002c-0.011-0-0.022-0-0.033-0-1.071 0-2.107 0.151-3.009 0.414l-0.082 0.020c-1.915 0.55-3.628 1.579-5 2.948l-0.001 0.001c-2.109 2.076-3.417 4.964-3.417 8.157 0 0.016 0 0.032 0 0.045v-0.003c-0 0.017-0 0.035-0 0.053 0 2.145 0.593 4.152 1.594 5.814l0.030 0.053c0.503 0.835 1.106 1.603 1.794 2.287l-0-0c1.372 1.369 3.085 2.397 5.082 2.966 0.98 0.276 1.994 0.416 3.040 0.416l-0.006-0c0.041 0 0.083 0.001 0.125 0.001 1.328 0 2.598-0.247 3.696-0.673 1.158-0.446 2.234-1.036 3.234-1.766 0.21-0.152 0.38-0.302 0.51-0.45l-0.001 0.001c0.121-0.132 0.194-0.307 0.194-0.5 0-0.001 0-0.002 0-0.003l-0-0.001c-0.003-0.086-0.022-0.168-0.054-0.239-0.034-0.088-0.080-0.174-0.14-0.256l-1.25-1.784-0.424-0.582c-0.14-0.2-0.31-0.306-0.51-0.318l-0.002 0c-0.122 0.003-0.241 0.019-0.344 0.044l-0.011 0.003c-0.179 0.052-0.346 0.134-0.489 0.237zM43.080 20.112c-0-0.012-0-0.025-0-0.039 0-3.197 1.3-6.090 3.4-8.18l0-0c1.376-1.373 3.096-2.403 5.018-2.95l0.082-0.020c0.907-0.263 1.949-0.414 3.027-0.414 0.017 0 0.035 0 0.052 0h-0.003c1.056 0 2.078 0.14 3.064 0.414 3.934 1.117 6.968 4.154 8.060 8.008l0.020 0.082c0.274 0.996 0.412 2.028 0.412 3.1 0 0.012 0 0.026 0 0.040 0 2.144-0.589 4.15-1.615 5.866l0.029-0.052c-1.030 1.719-2.429 3.119-4.094 4.12l-0.053 0.030c-0.852 0.5-1.77 0.89-2.758 1.166-0.911 0.264-1.957 0.416-3.038 0.416-0.009 0-0.018 0-0.027-0h0.001c-1.070 0-2.094-0.14-3.076-0.416-1.049-0.297-1.964-0.694-2.811-1.194l0.055 0.030c-0.891-0.525-1.661-1.125-2.344-1.812l-0-0c-0.683-0.684-1.284-1.452-1.784-2.286l-0.030-0.054c-0.997-1.663-1.586-3.67-1.586-5.814 0-0.014 0-0.028 0-0.042v0.002zM48.048 20.112c0 0.94 0.164 1.834 0.494 2.676 0.631 1.652 1.863 2.955 3.421 3.665l0.041 0.017c0.756 0.346 1.64 0.548 2.571 0.548 0.022 0 0.045-0 0.067-0l-0.003 0c0.928 0 1.788-0.182 2.58-0.548 0.802-0.37 1.484-0.87 2.048-1.48l0.004-0.004c0.576-0.624 1.026-1.356 1.348-2.2 0.324-0.84 0.486-1.732 0.486-2.674 0-0.93-0.162-1.82-0.486-2.668-0.327-0.862-0.784-1.603-1.354-2.241l0.006 0.007c-0.568-0.631-1.249-1.147-2.013-1.519l-0.039-0.017c-0.74-0.362-1.61-0.574-2.53-0.574-0.018 0-0.035 0-0.053 0l0.003-0c-0.952 0-1.83 0.192-2.634 0.574-0.816 0.389-1.508 0.905-2.084 1.531l-0.004 0.005c-1.159 1.288-1.868 3.001-1.868 4.879 0 0.007 0 0.015 0 0.022v-0.001zM91.344 6.972l0.045 0.029c-2.129-1.467-4.709-2.325-7.49-2.325-0.027 0-0.054 0-0.076 0h0.003c-0.020-0-0.039-0-0.059-0-1.257 0-2.472 0.177-3.53 0.484l-0.097 0.024c-1.127 0.324-2.194 0.788-3.119 1.336l-0.061 0.033c-0.975 0.577-1.87 1.276-2.663 2.079l0.001-0.001c-0.795 0.803-1.492 1.704-2.105 2.747l0.034-0.062c-1.187 2.003-1.868 4.341-1.868 6.838 0 0.018 0 0.035 0 0.050v-0.003c-0 0.017-0 0.035-0 0.052 0 1.261 0.174 2.482 0.476 3.545l0.022 0.093c0.317 1.129 0.781 2.197 1.336 3.121l0.035 0.062c0.58 0.97 1.276 1.863 2.069 2.658l0.001 0.001c2.417 2.438 5.769 3.947 9.473 3.947 0.018 0 0.035-0 0.050-0h-0.003c0.021 0 0.043 0 0.064 0 1.415 0 2.779-0.223 3.963-0.61l0.099-0.028c1.261-0.41 2.443-0.995 3.469-1.694 0.13-0.094 0.244-0.194 0.344-0.3s0.15-0.24 0.15-0.406l-0-0.002c-0.005-0.141-0.044-0.274-0.106-0.386l-1.744-2.95c-0.212-0.258-0.416-0.388-0.616-0.388-0.070 0.012-0.156 0.030-0.256 0.054l-0.005 0.001c-0.106 0.027-0.203 0.075-0.285 0.139-0.728 0.53-1.524 0.942-2.388 1.238-0.862 0.292-1.77 0.44-2.722 0.44l0.005-0c-0.032 0-0.064 0.001-0.097 0.001-1.159 0-2.26-0.248-3.202-0.673l-0.050-0.020c-0.962-0.434-1.822-1.053-2.54-1.816-0.728-0.778-1.296-1.688-1.7-2.728-0.406-1.044-0.608-2.158-0.608-3.348l0 0.004c-0-0.025-0-0.050-0-0.075 0-1.187 0.223-2.323 0.608-3.303l0.019-0.057c0.389-1.002 0.965-1.911 1.68-2.679 0.728-0.778 1.59-1.394 2.59-1.846 0.998-0.454 2.096-0.68 3.294-0.68h-0.003c0.017-0 0.034-0 0.050-0 0.948 0 1.857 0.162 2.646 0.442l0.065 0.020c0.843 0.3 1.63 0.718 2.315 1.216l-0.005-0.003c0.086 0.055 0.179 0.1 0.287 0.135l-0.006-0.002c0.079 0.027 0.163 0.043 0.252 0.046 0.224 0 0.434-0.136 0.634-0.406l1.708-2.909c0.065-0.123 0.103-0.262 0.106-0.411l-0 0.001c0-0.006 0-0.012 0-0.018 0-0.154-0.053-0.296-0.14-0.407-0.092-0.12-0.212-0.22-0.352-0.3zM117.33 30.25c0.001 0.011 0.001 0.025 0.001 0.038 0 0.178-0.049 0.344-0.135 0.486l0.002-0.004c-0.087 0.134-0.202 0.242-0.339 0.318l-0.005 0.002c-0.14 0.075-0.303 0.131-0.476 0.157l-0.008 0.001c-0.169 0.028-0.363 0.044-0.561 0.044-0.005 0-0.009 0-0.014-0h-2.201c-0.376 0-0.638-0.1-0.784-0.3-0.152-0.216-0.266-0.471-0.324-0.747l-0.002-0.013-0.106-1.5c-0.413 0.412-0.858 0.791-1.332 1.134l-0.032 0.022c-0.5 0.36-1.038 0.67-1.612 0.936-0.522 0.246-1.134 0.459-1.771 0.606l-0.063 0.012c-0.646 0.146-1.308 0.22-1.99 0.22-0.012 0-0.026 0-0.041 0-1.074 0-2.113-0.151-3.096-0.433l0.079 0.019c-1.049-0.298-1.964-0.696-2.811-1.196l0.055 0.030c-0.888-0.523-1.654-1.122-2.333-1.809l-0.001-0.001c-1.372-1.383-2.399-3.11-2.94-5.040l-0.020-0.082c-0.263-0.915-0.414-1.965-0.414-3.051 0-0.014 0-0.029 0-0.043v0.002c0-1.070 0.138-2.1 0.414-3.090s0.662-1.914 1.162-2.774c1.012-1.725 2.409-3.125 4.079-4.111l0.053-0.029c0.793-0.471 1.708-0.868 2.675-1.146l0.083-0.020c0.98-0.278 2-0.416 3.056-0.416 0.752 0 1.468 0.080 2.15 0.24 0.68 0.158 1.318 0.38 1.91 0.67 0.594 0.288 1.144 0.636 1.648 1.042 0.506 0.406 0.964 0.85 1.374 1.334l0.246-1.89c0.060-0.212 0.116-0.386 0.168-0.52 0.046-0.127 0.112-0.235 0.195-0.329l-0.001 0.001c0.076-0.081 0.175-0.14 0.286-0.167l0.004-0.001c0.121-0.028 0.26-0.044 0.403-0.044 0.013 0 0.026 0 0.039 0l-0.002-0h1.764c0.186 0 0.376 0.018 0.562 0.054 0.188 0.034 0.36 0.090 0.512 0.166 0.149 0.074 0.27 0.183 0.358 0.317l0.002 0.003c0.084 0.135 0.134 0.299 0.134 0.475 0 0.010-0 0.019-0 0.029l0-0.001v20.4zM99.006 20.058c0 0.942 0.164 1.834 0.494 2.676 0.328 0.842 0.786 1.58 1.374 2.216s1.278 1.14 2.070 1.51c0.792 0.372 1.66 0.558 2.6 0.558 0.95 0 1.84-0.186 2.668-0.558 0.841-0.377 1.557-0.886 2.156-1.508l0.002-0.002c0.61-0.634 1.092-1.374 1.444-2.216 0.335-0.781 0.53-1.69 0.53-2.644 0-0.011-0-0.022-0-0.034v0.002c0-0.93-0.176-1.816-0.53-2.658-0.36-0.858-0.847-1.593-1.446-2.219l0.002 0.003c-0.603-0.626-1.319-1.137-2.117-1.502l-0.043-0.018c-0.77-0.356-1.671-0.564-2.621-0.564-0.017 0-0.033 0-0.050 0h0.003c-0.94 0-1.806 0.188-2.6 0.566-0.807 0.386-1.493 0.896-2.064 1.514l-0.004 0.004c-0.575 0.624-1.040 1.359-1.358 2.169l-0.016 0.047c-0.313 0.779-0.494 1.683-0.494 2.629 0 0.011 0 0.022 0 0.033v-0.002zM125.452 30.232c-0.081 0.301-0.198 0.566-0.351 0.806l0.007-0.012c-0.124 0.178-0.36 0.266-0.714 0.266h-2.66c-0.74 0-1.11-0.354-1.11-1.060v-26.972c-0-0.008-0-0.018-0-0.028 0-0.289 0.122-0.549 0.318-0.731l0.001-0.001c0.21-0.2 0.452-0.3 0.72-0.3h2.908c0.018-0.001 0.039-0.002 0.061-0.002 0.299 0 0.569 0.119 0.767 0.312l-0-0c0.2 0.206 0.3 0.456 0.3 0.75v8.108c0.82-0.846 1.785-1.545 2.856-2.058l0.060-0.026c1.098-0.52 2.358-0.78 3.78-0.78 1.584 0 3.060 0.306 4.43 0.912 2.724 1.214 4.836 3.391 5.937 6.088l0.027 0.076c0.574 1.406 0.862 2.916 0.862 4.53 0 1.6-0.288 3.106-0.862 4.512-0.584 1.428-1.391 2.651-2.391 3.685l0.003-0.003c-0.997 1.027-2.184 1.863-3.504 2.453l-0.072 0.029c-1.278 0.575-2.771 0.91-4.342 0.91-0.031 0-0.063-0-0.094-0l0.005 0c-0.009 0-0.020 0-0.030 0-0.695 0-1.371-0.084-2.017-0.242l0.058 0.012c-0.696-0.168-1.3-0.383-1.875-0.651l0.060 0.025c-0.617-0.286-1.146-0.601-1.638-0.964l0.026 0.018c-0.506-0.37-0.952-0.752-1.366-1.166l0 0-0.16 1.5zM138.7 20.112c0-0.006 0-0.014 0-0.021 0-1.878-0.709-3.591-1.874-4.886l0.006 0.007c-0.578-0.63-1.268-1.147-2.040-1.521l-0.040-0.018c-0.796-0.382-1.66-0.574-2.588-0.574-0.94 0-1.824 0.192-2.652 0.574-1.643 0.765-2.919 2.089-3.603 3.723l-0.017 0.047c-0.334 0.781-0.528 1.69-0.528 2.644 0 0.008 0 0.017 0 0.025v-0.001 0.124c0.010 0.93 0.2 1.804 0.564 2.622 0.362 0.82 0.85 1.536 1.46 2.154 0.612 0.62 1.326 1.108 2.14 1.466 0.82 0.36 1.696 0.54 2.636 0.54 0.928 0 1.792-0.182 2.59-0.548 1.594-0.731 2.82-2.033 3.437-3.637l0.015-0.045c0.33-0.842 0.494-1.734 0.494-2.676zM146.346 9.938v20.294c0 0.706 0.352 1.060 1.058 1.060h2.924c0.74 0 1.11-0.354 1.11-1.060v-20.294c0-0.003 0-0.005 0-0.008 0-0.153-0.039-0.296-0.106-0.417-0.070-0.128-0.158-0.242-0.264-0.342l0 0c-0.197-0.19-0.464-0.307-0.758-0.31h-2.924c-0.34 0-0.6 0.102-0.776 0.308l0.001-0.002c-0.166 0.198-0.266 0.453-0.266 0.732 0 0.013 0 0.026 0.001 0.038zM146.346 2.132v2.632c0 0.754 0.352 1.13 1.058 1.13l2.958-0c0.017 0.001 0.034 0.001 0.051 0.001 0.302 0 0.57-0.141 0.745-0.363l-0.002 0.002c0.173-0.209 0.278-0.477 0.282-0.77v-2.632c0-0.354-0.1-0.618-0.3-0.794-0.2-0.178-0.464-0.266-0.792-0.266h-2.96c-0.692 0-1.040 0.354-1.040 1.060zM155.86 9.904v20.33c0 0.342 0.092 0.604 0.274 0.786s0.466 0.274 0.854 0.274l2.904-0c0.014 0.001 0.028 0.001 0.041 0.001 0.19 0 0.367-0.060 0.508-0.161l0.002-0.002c0.139-0.108 0.25-0.251 0.322-0.422l-0.005 0.013c0.081-0.189 0.134-0.392 0.155-0.613 0.024-0.224 0.036-0.448 0.036-0.67v-11.446c0.012-0.718 0.176-1.362 0.492-1.934 0.32-0.57 0.718-1.056 1.2-1.456 0.48-0.402 1.014-0.71 1.594-0.928 0.582-0.218 1.142-0.326 1.682-0.326l-0.005 0c0.035-0.001 0.071-0.001 0.106-0.001 0.717 0 1.398 0.157 1.979 0.425l0.027 0.012c0.566 0.265 1.067 0.645 1.479 1.114l-0.005-0.006c0.396 0.459 0.71 0.99 0.929 1.606l-0.012-0.038c0.212 0.58 0.328 1.207 0.328 1.861 0 0.002 0 0.003 0 0.004v11.762c0 0.448 0.080 0.76 0.24 0.936 0.158 0.178 0.472 0.266 0.942 0.266h2.678c0.376 0 0.664-0.106 0.864-0.318 0.2-0.214 0.3-0.53 0.3-0.954v-11.78c0-1.354-0.192-2.62-0.574-3.798s-0.942-2.202-1.682-3.072c-0.74-0.872-1.65-1.558-2.73-2.058s-2.314-0.752-3.7-0.752l0.006 0c-0.037-0-0.074-0.001-0.112-0.001-0.795 0-1.566 0.104-2.238 0.285-0.692 0.188-1.31 0.436-1.85 0.742s-1.008 0.652-1.4 1.042c-0.396 0.388-0.726 0.782-0.996 1.182l-0.194-1.872-0.002-0.013c-0.059-0.27-0.175-0.52-0.332-0.729-0.166-0.224-0.418-0.334-0.758-0.334h-1.78c-0.164 0-0.34 0.002-0.53 0.008-0.186 0.006-0.328 0.056-0.42 0.15l-0.006 0.003c-0.162 0.077-0.3 0.198-0.4 0.351-0.142 0.188-0.212 0.364-0.212 0.53zM180.878 24.968c-0.152-0.188-0.294-0.338-0.424-0.45-0.128-0.112-0.274-0.168-0.44-0.168l-0.002 0c-0.175 0.010-0.338 0.067-0.472 0.158l-1.977 1.522c-0.115 0.092-0.216 0.2-0.305 0.326-0.076 0.11-0.114 0.244-0.114 0.396l0 0.004c0.016 0.294 0.112 0.567 0.264 0.792l0.018 0.035c0.384 0.686 0.88 1.301 1.47 1.827l-0.008-0.007c0.569 0.506 1.206 0.937 1.946 1.297l-0.056-0.025c0.687 0.336 1.42 0.592 2.25 0.767l-0.077-0.014c0.787 0.166 1.603 0.253 2.439 0.253 1.183 0 2.326-0.174 3.32-0.477 1.050-0.318 1.962-0.778 2.73-1.378l0.014-0.011c0.738-0.576 1.347-1.311 1.792-2.189 0.436-0.864 0.652-1.844 0.652-2.94 0-1.036-0.182-1.94-0.546-2.71-0.364-0.774-0.872-1.444-1.524-2.014-0.652-0.572-1.43-1.058-2.334-1.458s-1.898-0.754-2.978-1.060c-0.376-0.106-0.78-0.222-1.216-0.352-0.434-0.13-0.836-0.292-1.206-0.486s-0.676-0.424-0.918-0.688c-0.24-0.266-0.36-0.586-0.36-0.964v0.001c-0-0.005-0-0.010-0-0.015 0-0.331 0.109-0.636 0.29-0.878l0.005-0.007c0.195-0.262 0.435-0.488 0.719-0.673l-0.012 0.008c0.285-0.188 0.601-0.333 0.962-0.432 0.348-0.094 0.678-0.14 0.996-0.14l-0.002 0c0.015-0 0.030-0 0.044-0 0.366 0 0.723 0.042 1.034 0.114l0.026 0.005c0.645 0.152 1.228 0.467 1.7 0.895l0.007 0.006c0.27 0.244 0.523 0.507 0.767 0.798 0.248 0.306 0.498 0.46 0.758 0.46l0.004-0c0.197-0.021 0.378-0.097 0.524-0.212 0.212-0.142 0.436-0.312 0.67-0.512s0.474-0.406 0.714-0.618c0.24-0.212 0.45-0.39 0.626-0.53 0.234-0.188 0.352-0.388 0.352-0.6l-0-0.002c-0.013-0.239-0.111-0.455-0.264-0.618-0.506-0.6-1.002-1.124-1.49-1.57l0.004 0.003c-0.912-0.858-2.048-1.48-3.36-1.779-0.646-0.148-1.38-0.22-2.202-0.22l0.006 0c-0.042-0.001-0.085-0.001-0.127-0.001-1.092 0-2.145 0.171-3.060 0.469-0.958 0.312-1.778 0.75-2.458 1.316l-0.010 0.008c-0.653 0.54-1.188 1.217-1.576 2.022l0.016-0.036c-0.372 0.781-0.58 1.655-0.58 2.577 0 0.026 0 0.052 0 0.073 0 0.848 0.13 1.63 0.388 2.35 0.258 0.716 0.666 1.376 1.226 1.976l0.003 0.003c0.605 0.632 1.311 1.166 2.137 1.597l-0.081-0.039c0.984 0.515 2.034 0.923 3.235 1.231l-0.686-0.175c0.502 0.149 1.005 0.295 2.192 0.599l0.044 0.010c0.441 0.119 0.862 0.285 1.224 0.476l0.014 0.007c0.338 0.173 0.632 0.42 0.866 0.725 0.218 0.294 0.326 0.678 0.326 1.148l-0-0.003c0.001 0.024 0.001 0.048 0.001 0.072 0 0.431-0.157 0.825-0.415 1.125l-0.003 0.003c-0.273 0.305-0.607 0.555-1.001 0.737l0.029-0.012c-0.394 0.185-0.818 0.318-1.289 0.392-0.446 0.070-0.834 0.106-1.162 0.106-0.212 0-0.496-0.042-0.854-0.122-0.358-0.084-0.734-0.216-1.128-0.4-0.394-0.182-0.778-0.414-1.154-0.696-0.376-0.284-0.686-0.618-0.932-1.008z"></path>
</symbol>
</defs>
</svg>
